<?xml version="1.0" encoding="utf-8"?>
<svg width="130px" height="130px" viewBox="0 0 130 130" version="1.1" xmlns:xlink="http://www.w3.org/1999/xlink" xmlns="http://www.w3.org/2000/svg">
  <path d="M65 0C29.1015 0 0 29.1015 0 65C0 100.899 29.1015 130 65 130C100.899 130 130 100.899 130 65C130 29.1015 100.899 0 65 0ZM52.6486 96.7707L44.159 92.894L46.9071 87.218L14.6503 67.1474L14.6503 59.4594L41.5909 42.7585L46.3346 50.2502L24.0231 63.2707L50.8329 79.0393L75.0909 28.7075L83.4986 32.5842L80.7833 38.2275L115.052 59.394L115.052 67.1474L88.275 83.7829L83.3678 76.3894L105.696 63.2707L76.8739 46.4062L52.6486 96.7707Z" id="Oval-Subtract" fill="#FFFFFF" fill-rule="evenodd" stroke="none" />
</svg>