<?xml version="1.0" encoding="utf-8"?>
<svg width="130px" height="130px" viewBox="0 0 130 130" version="1.1" xmlns:xlink="http://www.w3.org/1999/xlink" xmlns="http://www.w3.org/2000/svg">
  <path d="M65 0C29.1015 0 0 29.1015 0 65C0 100.899 29.1015 130 65 130C100.899 130 130 100.899 130 65C130 29.1015 100.899 0 65 0ZM50.9965 95.0532L46.3346 92.9594L49.2462 87.0053L15.9261 66.2641L15.9261 60.3427L42.3434 44.0344L45.1241 48.4672L20.8661 63.3361L51.5199 82.2617L77.2501 29.2146L81.8465 31.4882L78.4442 38.4565L113.842 60.3427L113.842 66.2641L87.7679 82.5725L84.6437 78.3195L108.902 63.3361L76.1869 43.1674L50.9965 95.0532Z" id="Oval-Subtract" fill="#FFFFFF" fill-rule="evenodd" stroke="none" />
</svg>